# xmcd
#
# Track frame offsets:
# 150
# 17686
# 30583
# 44345
# 60060
# 75503
# 93882
# 111362
# 130459
# 145304
# 158759
# 176456
# 190225
# 207309
# 216914
# 230337
# 243956
# 258342
# 272521
# 285948
# 298654
#
# Disc length: 4246 seconds
#
#
# Revision: 0
# Processed by: cddbd v1.5.2PL0 Copyright (c) Steve Scherf et al.
# Submitted via: FreeRIP 2.945 
#
DISCID=1f109415
DTITLE=Various Artist - Westerbro LineDance - Beginner 3
DYEAR=2008
DGENRE=Country
TTITLE0=Mark Knopfler - Quality Shoe
TTITLE1=Mestizzo - Patricia
TTITLE2=Scooter Lee - Rock 'n' Roll Waltz
TTITLE3=Black Shelton - Some beach
TTITLE4=Kelly Willis - Whatever way the wind blows
TTITLE5=Alan Jackson - Who's cheatin' who
TTITLE6=T. Spoon - S.O.T.B.
TTITLE7=Shakin' Stevens - Rocn'n'roll hitmix '99
TTITLE8=Carlene Carter - Every little thing
TTITLE9=Brendon Walmsley - Speak to the sky
TTITLE10=Dave Sheriff - Stroll along cha cha
TTITLE11=Cash on delivery - Stupidville
TTITLE12=Blaine Larsen - I don't know what she said
TTITLE13=Elvis Presley - I need your love tonight
TTITLE14=Tim McGraw - down on the farm
TTITLE15=Elvis Presley - Burning love
TTITLE16=Unknown - Daddie's money
TTITLE17=Joe Nicols - Tequila makes her clothes fall off
TTITLE18=Tanya Tucker - San Antonio Stroll
TTITLE19=Trini Triggs - Straight tequila
TTITLE20=Carlene Carter - World of miracles
EXTD=
EXTT0=
EXTT1=
EXTT2=
EXTT3=
EXTT4=
EXTT5=
EXTT6=
EXTT7=
EXTT8=
EXTT9=
EXTT10=
EXTT11=
EXTT12=
EXTT13=
EXTT14=
EXTT15=
EXTT16=
EXTT17=
EXTT18=
EXTT19=
EXTT20=
PLAYORDER=
